<svg viewBox="0 0 2400 928"  version="1.1" xmlns="http://www.w3.org/2000/svg">
<g id="qubit_lines">
<path id="qubit_line:0" d="M64,64 L2368,64 " stroke="black"/>
<text dominant-baseline="central" text-anchor="end" font-family="monospace" font-size="12" x="64" y="64">q0</text>
<path id="qubit_line:1" d="M64,128 L2368,128 " stroke="black"/>
<text dominant-baseline="central" text-anchor="end" font-family="monospace" font-size="12" x="64" y="128">q1</text>
<path id="qubit_line:2" d="M64,192 L2368,192 " stroke="black"/>
<text dominant-baseline="central" text-anchor="end" font-family="monospace" font-size="12" x="64" y="192">q2</text>
<path id="qubit_line:3" d="M64,256 L2368,256 " stroke="black"/>
<text dominant-baseline="central" text-anchor="end" font-family="monospace" font-size="12" x="64" y="256">q3</text>
<path id="qubit_line:4" d="M64,320 L2368,320 " stroke="black"/>
<text dominant-baseline="central" text-anchor="end" font-family="monospace" font-size="12" x="64" y="320">q4</text>
<path id="qubit_line:5" d="M64,384 L2368,384 " stroke="black"/>
<text dominant-baseline="central" text-anchor="end" font-family="monospace" font-size="12" x="64" y="384">q5</text>
<path id="qubit_line:6" d="M64,448 L2368,448 " stroke="black"/>
<text dominant-baseline="central" text-anchor="end" font-family="monospace" font-size="12" x="64" y="448">q6</text>
<path id="qubit_line:7" d="M64,512 L2368,512 " stroke="black"/>
<text dominant-baseline="central" text-anchor="end" font-family="monospace" font-size="12" x="64" y="512">q7</text>
<path id="qubit_line:8" d="M64,576 L2368,576 " stroke="black"/>
<text dominant-baseline="central" text-anchor="end" font-family="monospace" font-size="12" x="64" y="576">q8</text>
<path id="qubit_line:9" d="M64,640 L2368,640 " stroke="black"/>
<text dominant-baseline="central" text-anchor="end" font-family="monospace" font-size="12" x="64" y="640">q9</text>
<path id="qubit_line:10" d="M64,704 L2368,704 " stroke="black"/>
<text dominant-baseline="central" text-anchor="end" font-family="monospace" font-size="12" x="64" y="704">q10</text>
<path id="qubit_line:11" d="M64,768 L2368,768 " stroke="black"/>
<text dominant-baseline="central" text-anchor="end" font-family="monospace" font-size="12" x="64" y="768">q11</text>
<path id="qubit_line:12" d="M64,832 L2368,832 " stroke="black"/>
<text dominant-baseline="central" text-anchor="end" font-family="monospace" font-size="12" x="64" y="832">q12</text>
</g>
<rect x="80" y="112" width="224" height="32" stroke="black" fill="white"/>
<text dominant-baseline="central" text-anchor="middle" font-family="monospace" font-size="16" x="192" y="128">COORDS(1,1)</text>
<rect x="80" y="176" width="224" height="32" stroke="black" fill="white"/>
<text dominant-baseline="central" text-anchor="middle" font-family="monospace" font-size="16" x="192" y="192">COORDS(2,0)</text>
<rect x="80" y="240" width="224" height="32" stroke="black" fill="white"/>
<text dominant-baseline="central" text-anchor="middle" font-family="monospace" font-size="16" x="192" y="256">COORDS(3,1)</text>
<rect x="80" y="432" width="224" height="32" stroke="black" fill="white"/>
<text dominant-baseline="central" text-anchor="middle" font-family="monospace" font-size="16" x="192" y="448">COORDS(1,3)</text>
<rect x="80" y="496" width="224" height="32" stroke="black" fill="white"/>
<text dominant-baseline="central" text-anchor="middle" font-family="monospace" font-size="16" x="192" y="512">COORDS(2,2)</text>
<rect x="80" y="560" width="224" height="32" stroke="black" fill="white"/>
<text dominant-baseline="central" text-anchor="middle" font-family="monospace" font-size="16" x="192" y="576">COORDS(3,3)</text>
<rect x="80" y="816" width="224" height="32" stroke="black" fill="white"/>
<text dominant-baseline="central" text-anchor="middle" font-family="monospace" font-size="16" x="192" y="832">COORDS(2,4)</text>
<rect x="336" y="112" width="32" height="32" stroke="black" fill="black"/>
<text dominant-baseline="central" text-anchor="middle" font-family="monospace" font-size="30" x="352" y="128" fill="white">R</text>
<rect x="336" y="240" width="32" height="32" stroke="black" fill="black"/>
<text dominant-baseline="central" text-anchor="middle" font-family="monospace" font-size="30" x="352" y="256" fill="white">R</text>
<rect x="336" y="432" width="32" height="32" stroke="black" fill="black"/>
<text dominant-baseline="central" text-anchor="middle" font-family="monospace" font-size="30" x="352" y="448" fill="white">R</text>
<rect x="336" y="560" width="32" height="32" stroke="black" fill="black"/>
<text dominant-baseline="central" text-anchor="middle" font-family="monospace" font-size="30" x="352" y="576" fill="white">R</text>
<rect x="336" y="176" width="32" height="32" stroke="black" fill="black"/>
<text dominant-baseline="central" text-anchor="middle" font-family="monospace" font-size="30" x="352" y="192" fill="white">R</text>
<rect x="336" y="496" width="32" height="32" stroke="black" fill="black"/>
<text dominant-baseline="central" text-anchor="middle" font-family="monospace" font-size="30" x="352" y="512" fill="white">R</text>
<rect x="336" y="816" width="32" height="32" stroke="black" fill="black"/>
<text dominant-baseline="central" text-anchor="middle" font-family="monospace" font-size="30" x="352" y="832" fill="white">R</text>
<path d="M68,40 L68,32 L380,32 L380,40 " stroke="black" fill="none"/>
<path d="M68,888 L68,896 L380,896 L380,888 " stroke="black" fill="none"/>
<rect x="400" y="176" width="32" height="32" stroke="black" fill="white"/>
<text dominant-baseline="central" text-anchor="middle" font-family="monospace" font-size="30" x="416" y="192">H</text>
<rect x="400" y="816" width="32" height="32" stroke="black" fill="white"/>
<text dominant-baseline="central" text-anchor="middle" font-family="monospace" font-size="30" x="416" y="832">H</text>
<path d="M480,192 L480,256 " stroke="black"/>
<circle cx="480" cy="192" r="12" stroke="none" fill="black"/>
<circle cx="480" cy="256" r="12" stroke="black" fill="white"/>
<path d="M468,256 L492,256 M480,244 L480,268 " stroke="black"/>
<path d="M480,512 L480,576 " stroke="black"/>
<circle cx="480" cy="576" r="12" stroke="none" fill="black"/>
<circle cx="480" cy="512" r="12" stroke="black" fill="white"/>
<path d="M468,512 L492,512 M480,500 L480,524 " stroke="black"/>
<path d="M544,128 L544,192 " stroke="black"/>
<circle cx="544" cy="192" r="12" stroke="none" fill="black"/>
<circle cx="544" cy="128" r="12" stroke="black" fill="white"/>
<path d="M532,128 L556,128 M544,116 L544,140 " stroke="black"/>
<path d="M544,256 L544,512 " stroke="black"/>
<circle cx="544" cy="256" r="12" stroke="none" fill="black"/>
<circle cx="544" cy="512" r="12" stroke="black" fill="white"/>
<path d="M532,512 L556,512 M544,500 L544,524 " stroke="black"/>
<path d="M608,576 L608,832 " stroke="black"/>
<circle cx="608" cy="832" r="12" stroke="none" fill="black"/>
<circle cx="608" cy="576" r="12" stroke="black" fill="white"/>
<path d="M596,576 L620,576 M608,564 L608,588 " stroke="black"/>
<path d="M608,448 L608,512 " stroke="black"/>
<circle cx="608" cy="448" r="12" stroke="none" fill="black"/>
<circle cx="608" cy="512" r="12" stroke="black" fill="white"/>
<path d="M596,512 L620,512 M608,500 L608,524 " stroke="black"/>
<path d="M672,448 L672,832 " stroke="black"/>
<circle cx="672" cy="832" r="12" stroke="none" fill="black"/>
<circle cx="672" cy="448" r="12" stroke="black" fill="white"/>
<path d="M660,448 L684,448 M672,436 L672,460 " stroke="black"/>
<path d="M736,128 L736,512 " stroke="black"/>
<circle cx="736" cy="128" r="12" stroke="none" fill="black"/>
<circle cx="736" cy="512" r="12" stroke="black" fill="white"/>
<path d="M724,512 L748,512 M736,500 L736,524 " stroke="black"/>
<path d="M644,40 L644,32 L764,32 L764,40 " stroke="black" fill="none"/>
<path d="M644,888 L644,896 L764,896 L764,888 " stroke="black" fill="none"/>
<rect x="784" y="176" width="32" height="32" stroke="black" fill="white"/>
<text dominant-baseline="central" text-anchor="middle" font-family="monospace" font-size="30" x="800" y="192">H</text>
<rect x="784" y="816" width="32" height="32" stroke="black" fill="white"/>
<text dominant-baseline="central" text-anchor="middle" font-family="monospace" font-size="30" x="800" y="832">H</text>
<rect x="848" y="176" width="32" height="32" stroke="black" fill="black"/>
<text dominant-baseline="central" text-anchor="middle" font-family="monospace" font-size="24" x="864" y="192" fill="white">MR</text>
<text text-anchor="middle" font-family="monospace" font-size="8" x="864" y="172">rec[0]</text>
<rect x="848" y="496" width="32" height="32" stroke="black" fill="black"/>
<text dominant-baseline="central" text-anchor="middle" font-family="monospace" font-size="24" x="864" y="512" fill="white">MR</text>
<text text-anchor="middle" font-family="monospace" font-size="8" x="864" y="492">rec[1]</text>
<rect x="848" y="816" width="32" height="32" stroke="black" fill="black"/>
<text dominant-baseline="central" text-anchor="middle" font-family="monospace" font-size="24" x="864" y="832" fill="white">MR</text>
<text text-anchor="middle" font-family="monospace" font-size="8" x="864" y="812">rec[2]</text>
<rect x="912" y="496" width="224" height="32" stroke="black" fill="lightgray"/>
<text dominant-baseline="central" text-anchor="middle" font-family="monospace" font-size="16" x="1024" y="512">DETECTOR</text>
<text dominant-baseline="hanging" text-anchor="middle" font-family="monospace" font-size="8" x="1024" y="532">coords=(2,2,0)</text>
<text text-anchor="middle" font-family="monospace" font-size="8" x="1024" y="492">D0 = rec[1]</text>
<path d="M836,40 L836,32 L1148,32 L1148,40 " stroke="black" fill="none"/>
<path d="M836,888 L836,896 L1148,896 L1148,888 " stroke="black" fill="none"/>
<rect x="1168" y="176" width="32" height="32" stroke="black" fill="white"/>
<text dominant-baseline="central" text-anchor="middle" font-family="monospace" font-size="30" x="1184" y="192">H</text>
<rect x="1168" y="816" width="32" height="32" stroke="black" fill="white"/>
<text dominant-baseline="central" text-anchor="middle" font-family="monospace" font-size="30" x="1184" y="832">H</text>
<path d="M1248,192 L1248,256 " stroke="black"/>
<circle cx="1248" cy="192" r="12" stroke="none" fill="black"/>
<circle cx="1248" cy="256" r="12" stroke="black" fill="white"/>
<path d="M1236,256 L1260,256 M1248,244 L1248,268 " stroke="black"/>
<path d="M1248,512 L1248,576 " stroke="black"/>
<circle cx="1248" cy="576" r="12" stroke="none" fill="black"/>
<circle cx="1248" cy="512" r="12" stroke="black" fill="white"/>
<path d="M1236,512 L1260,512 M1248,500 L1248,524 " stroke="black"/>
<path d="M1312,128 L1312,192 " stroke="black"/>
<circle cx="1312" cy="192" r="12" stroke="none" fill="black"/>
<circle cx="1312" cy="128" r="12" stroke="black" fill="white"/>
<path d="M1300,128 L1324,128 M1312,116 L1312,140 " stroke="black"/>
<path d="M1312,256 L1312,512 " stroke="black"/>
<circle cx="1312" cy="256" r="12" stroke="none" fill="black"/>
<circle cx="1312" cy="512" r="12" stroke="black" fill="white"/>
<path d="M1300,512 L1324,512 M1312,500 L1312,524 " stroke="black"/>
<path d="M1376,576 L1376,832 " stroke="black"/>
<circle cx="1376" cy="832" r="12" stroke="none" fill="black"/>
<circle cx="1376" cy="576" r="12" stroke="black" fill="white"/>
<path d="M1364,576 L1388,576 M1376,564 L1376,588 " stroke="black"/>
<path d="M1376,448 L1376,512 " stroke="black"/>
<circle cx="1376" cy="448" r="12" stroke="none" fill="black"/>
<circle cx="1376" cy="512" r="12" stroke="black" fill="white"/>
<path d="M1364,512 L1388,512 M1376,500 L1376,524 " stroke="black"/>
<path d="M1440,448 L1440,832 " stroke="black"/>
<circle cx="1440" cy="832" r="12" stroke="none" fill="black"/>
<circle cx="1440" cy="448" r="12" stroke="black" fill="white"/>
<path d="M1428,448 L1452,448 M1440,436 L1440,460 " stroke="black"/>
<path d="M1504,128 L1504,512 " stroke="black"/>
<circle cx="1504" cy="128" r="12" stroke="none" fill="black"/>
<circle cx="1504" cy="512" r="12" stroke="black" fill="white"/>
<path d="M1492,512 L1516,512 M1504,500 L1504,524 " stroke="black"/>
<path d="M1412,40 L1412,32 L1532,32 L1532,40 " stroke="black" fill="none"/>
<path d="M1412,888 L1412,896 L1532,896 L1532,888 " stroke="black" fill="none"/>
<rect x="1552" y="176" width="32" height="32" stroke="black" fill="white"/>
<text dominant-baseline="central" text-anchor="middle" font-family="monospace" font-size="30" x="1568" y="192">H</text>
<rect x="1552" y="816" width="32" height="32" stroke="black" fill="white"/>
<text dominant-baseline="central" text-anchor="middle" font-family="monospace" font-size="30" x="1568" y="832">H</text>
<rect x="1616" y="176" width="32" height="32" stroke="black" fill="black"/>
<text dominant-baseline="central" text-anchor="middle" font-family="monospace" font-size="24" x="1632" y="192" fill="white">MR</text>
<text text-anchor="middle" font-family="monospace" font-size="8" x="1632" y="172">rec[3]</text>
<rect x="1616" y="496" width="32" height="32" stroke="black" fill="black"/>
<text dominant-baseline="central" text-anchor="middle" font-family="monospace" font-size="24" x="1632" y="512" fill="white">MR</text>
<text text-anchor="middle" font-family="monospace" font-size="8" x="1632" y="492">rec[4]</text>
<rect x="1616" y="816" width="32" height="32" stroke="black" fill="black"/>
<text dominant-baseline="central" text-anchor="middle" font-family="monospace" font-size="24" x="1632" y="832" fill="white">MR</text>
<text text-anchor="middle" font-family="monospace" font-size="8" x="1632" y="812">rec[5]</text>
<rect x="1680" y="176" width="224" height="32" stroke="black" fill="lightgray"/>
<text dominant-baseline="central" text-anchor="middle" font-family="monospace" font-size="16" x="1792" y="192">DETECTOR</text>
<text dominant-baseline="hanging" text-anchor="middle" font-family="monospace" font-size="8" x="1792" y="212">coords=(2,0,1)</text>
<text text-anchor="middle" font-family="monospace" font-size="8" x="1792" y="172">D1 = rec[3]*rec[0]</text>
<rect x="1680" y="496" width="224" height="32" stroke="black" fill="lightgray"/>
<text dominant-baseline="central" text-anchor="middle" font-family="monospace" font-size="16" x="1792" y="512">DETECTOR</text>
<text dominant-baseline="hanging" text-anchor="middle" font-family="monospace" font-size="8" x="1792" y="532">coords=(2,2,1)</text>
<text text-anchor="middle" font-family="monospace" font-size="8" x="1792" y="492">D2 = rec[4]*rec[1]</text>
<rect x="1680" y="816" width="224" height="32" stroke="black" fill="lightgray"/>
<text dominant-baseline="central" text-anchor="middle" font-family="monospace" font-size="16" x="1792" y="832">DETECTOR</text>
<text dominant-baseline="hanging" text-anchor="middle" font-family="monospace" font-size="8" x="1792" y="852">coords=(2,4,1)</text>
<text text-anchor="middle" font-family="monospace" font-size="8" x="1792" y="812">D3 = rec[5]*rec[2]</text>
<rect x="1680" y="112" width="32" height="32" stroke="black" fill="black"/>
<text dominant-baseline="central" text-anchor="middle" font-family="monospace" font-size="30" x="1696" y="128" fill="white">M</text>
<text text-anchor="middle" font-family="monospace" font-size="8" x="1696" y="108">rec[6]</text>
<rect x="1680" y="240" width="32" height="32" stroke="black" fill="black"/>
<text dominant-baseline="central" text-anchor="middle" font-family="monospace" font-size="30" x="1696" y="256" fill="white">M</text>
<text text-anchor="middle" font-family="monospace" font-size="8" x="1696" y="236">rec[7]</text>
<rect x="1680" y="432" width="32" height="32" stroke="black" fill="black"/>
<text dominant-baseline="central" text-anchor="middle" font-family="monospace" font-size="30" x="1696" y="448" fill="white">M</text>
<text text-anchor="middle" font-family="monospace" font-size="8" x="1696" y="428">rec[8]</text>
<rect x="1680" y="560" width="32" height="32" stroke="black" fill="black"/>
<text dominant-baseline="central" text-anchor="middle" font-family="monospace" font-size="30" x="1696" y="576" fill="white">M</text>
<text text-anchor="middle" font-family="monospace" font-size="8" x="1696" y="556">rec[9]</text>
<rect x="1936" y="496" width="416" height="32" stroke="black" fill="lightgray"/>
<text dominant-baseline="central" text-anchor="middle" font-family="monospace" font-size="16" x="2144" y="512">DETECTOR</text>
<text dominant-baseline="hanging" text-anchor="middle" font-family="monospace" font-size="8" x="2144" y="532">coords=(2,2,2)</text>
<text text-anchor="middle" font-family="monospace" font-size="8" x="2144" y="492">D4 = rec[9]*rec[8]*rec[7]*rec[6]*rec[4]</text>
<rect x="1936" y="112" width="224" height="32" stroke="black" fill="lightgray"/>
<text dominant-baseline="central" text-anchor="middle" font-family="monospace" font-size="16" x="2048" y="128">OBS_INCLUDE(0)</text>
<text text-anchor="middle" font-family="monospace" font-size="8" x="2048" y="108">L0 *= rec[7]*rec[6]</text>
<path d="M1604,40 L1604,32 L2364,32 L2364,40 " stroke="black" fill="none"/>
<path d="M1604,888 L1604,896 L2364,896 L2364,888 " stroke="black" fill="none"/>
</svg>